<svg xmlns="http://www.w3.org/2000/svg" viewBox="0 0 32 32">
  <rect width="32" height="32" rx="6" fill="#F3ECDA"/>
  <circle cx="16" cy="16" r="12" fill="#BCDCCE"/>
  <path d="M9 19 C10 15 13 13 16 14 C20 15 23 13 23 17 C23 21 19 23 15 22 C11 21 8.5 21 9 19 Z" fill="#74A85E" stroke="#3D3423" stroke-width="1"/>
  <path d="M12 17.5 C13 15.5 15 15 16.5 16" fill="none" stroke="#3D3423" stroke-width="0.8" opacity="0.5"/>
  <circle cx="20" cy="18" r="1.2" fill="#3D3423"/>
  <circle cx="13" cy="19.5" r="1" fill="#3D3423"/>
  <path d="M7 9 q1.5 -1.5 3 0 q1.5 1.5 3 0" fill="none" stroke="#3D3423" stroke-width="0.9" opacity="0.55"/>
  <path d="M20 8 q1.5 -1.5 3 0" fill="none" stroke="#3D3423" stroke-width="0.9" opacity="0.55"/>
</svg>
